{"accessors" : [{"bufferView" : 0, "byteOffset" : 0, "componentType" : 5123, "count" : 972, "type" : "SCALAR", "max" : [971], "min" : [0]}, {"bufferView" : 1, "byteOffset" : 0, "componentType" : 5126, "count" : 972, "type" : "VEC3", "max" : [6.587601661682129, 1.6961839199066162, 10.265083312988281], "min" : [-6.919365882873535, -1.6961839199066162, -11.239945411682129], "name" : "POSITION"}, {"bufferView" : 1, "byteOffset" : 12, "componentType" : 5126, "count" : 972, "type" : "VEC3", "max" : [1.0000044107437134, 1.0000044107437134, 1.0000044107437134], "min" : [-1.0000044107437134, -1.0000044107437134, -1.0000044107437134], "name" : "NORMAL"}, {"bufferView" : 1, "byteOffset" : 24, "componentType" : 5126, "count" : 972, "type" : "VEC2", "max" : [0.9610030055046082, -0.0030322670936584473], "min" : [0.00445517897605896, -0.9943675994873047], "name" : "TEXCOORD_0"}], "asset" : {"generator" : "Aspose.3D 23.2", "version" : "2.0"}, "buffers" : [{"uri" : "data:application/octet-stream;base64,", "byteLength" : 33056}], "bufferViews" : [{"buffer" : 0, "byteOffset" : 0, "byteLength" : 1944, "target" : 34963}, {"buffer" : 0, "byteOffset" : 1948, "byteLength" : 31104, "byteStride" : 32, "target" : 34962}], "meshes" : [{"primitives" : [{"attributes" : {"POSITION" : 1, "NORMAL" : 2, "TEXCOORD_0" : 3}, "indices" : 0, "mode" : 4}], "name" : "book_01"}], "nodes" : [{"mesh" : 0, "name" : "book_01"}], "scene" : 0, "scenes" : [{"nodes" : [0]}]}