{"accessors" : [{"bufferView" : 0, "byteOffset" : 0, "componentType" : 5123, "count" : 960, "type" : "SCALAR", "max" : [959], "min" : [0]}, {"bufferView" : 1, "byteOffset" : 0, "componentType" : 5126, "count" : 960, "type" : "VEC3", "max" : [0.03000333160161972, 0.020640481263399124, 0.005402794107794762], "min" : [-0.03000333160161972, -0.020640481263399124, -0.005402794107794762], "name" : "POSITION"}, {"bufferView" : 1, "byteOffset" : 12, "componentType" : 5126, "count" : 960, "type" : "VEC3", "max" : [0.9955499172210693, 0.9955499172210693, 0.9994609355926514], "min" : [-0.9955499172210693, -0.9955499172210693, -0.9994609951972961], "name" : "NORMAL"}, {"bufferView" : 1, "byteOffset" : 24, "componentType" : 5126, "count" : 960, "type" : "VEC2", "max" : [0.9917684197425842, -0.00823161005973816], "min" : [0.00823161005973816, -0.24383658170700073], "name" : "TEXCOORD_0"}, {"bufferView" : 0, "byteOffset" : 1920, "componentType" : 5123, "count" : 960, "type" : "SCALAR", "max" : [959], "min" : [0]}, {"bufferView" : 2, "byteOffset" : 0, "componentType" : 5126, "count" : 960, "type" : "VEC3", "max" : [0.03000333160161972, 0.005402796436101198, 0.020640481263399124], "min" : [-0.03000333160161972, -0.005402795970439911, -0.020640481263399124], "name" : "POSITION"}, {"bufferView" : 2, "byteOffset" : 12, "componentType" : 5126, "count" : 960, "type" : "VEC3", "max" : [0.9955499172210693, 0.9994609951972961, 0.9955499172210693], "min" : [-0.9955499172210693, -0.9994609951972961, -0.9955499172210693], "name" : "NORMAL"}, {"bufferView" : 2, "byteOffset" : 24, "componentType" : 5126, "count" : 960, "type" : "VEC2", "max" : [0.9917684197425842, -0.00823161005973816], "min" : [0.00823161005973816, -0.24383658170700073], "name" : "TEXCOORD_0"}], "asset" : {"generator" : "Aspose.3D 23.2", "version" : "2.0"}, "buffers" : [{"uri" : "data:application/octet-stream;base64,", "byteLength" : 65292}], "bufferViews" : [{"buffer" : 0, "byteOffset" : 0, "byteLength" : 3840, "target" : 34963}, {"buffer" : 0, "byteOffset" : 3844, "byteLength" : 30720, "byteStride" : 32, "target" : 34962}, {"buffer" : 0, "byteOffset" : 34568, "byteLength" : 30720, "byteStride" : 32, "target" : 34962}], "materials" : [{"name" : "basic", "pbrMetallicRoughness" : {"baseColorFactor" : [0.800000011920929, 0.800000011920929, 0.800000011920929, 1], "metallicFactor" : 0, "roughnessFactor" : 0}, "emissiveFactor" : [0, 0, 0], "alphaMode" : "OPAQUE", "doubleSided" : false}, {"name" : "basic", "pbrMetallicRoughness" : {"baseColorFactor" : [0.800000011920929, 0.800000011920929, 0.800000011920929, 1], "metallicFactor" : 0, "roughnessFactor" : 0}, "emissiveFactor" : [0, 0, 0], "alphaMode" : "OPAQUE", "doubleSided" : false}], "meshes" : [{"primitives" : [{"attributes" : {"POSITION" : 1, "NORMAL" : 2, "TEXCOORD_0" : 3}, "indices" : 0, "material" : 0, "mode" : 4}], "name" : "chain_link"}, {"primitives" : [{"attributes" : {"POSITION" : 5, "NORMAL" : 6, "TEXCOORD_0" : 7}, "indices" : 4, "material" : 1, "mode" : 4}], "name" : "chain_link_01"}], "nodes" : [{"matrix" : [1, 0, 0, 0, 0, 1, 0, 0, 0, 0, 1, 0, 0.038607966154813766, 0, 0, 1], "mesh" : 1, "name" : "chain_link_01"}, {"children" : [0], "matrix" : [100, 0, 0, 0, 0, -1.6292067955264296E-05, -99.99999999999866, 0, 0, 99.99999999999866, -1.6292067955264296E-05, 0, 0, 0, 0, 1], "mesh" : 0, "name" : "chain_link"}], "scene" : 0, "scenes" : [{"nodes" : [1]}]}