{"accessors" : [{"bufferView" : 0, "byteOffset" : 0, "componentType" : 5123, "count" : 828, "type" : "SCALAR", "max" : [827], "min" : [0]}, {"bufferView" : 1, "byteOffset" : 0, "componentType" : 5126, "count" : 828, "type" : "VEC3", "max" : [0.1752329170703888, 0.1752329170703888, 0.08864398300647736], "min" : [-0.17523281276226044, -0.17523296177387238, -3.433199680102916E-08], "name" : "POSITION"}, {"bufferView" : 1, "byteOffset" : 12, "componentType" : 5126, "count" : 828, "type" : "VEC3", "max" : [1.0000044107437134, 0.999980092048645, 1.0000044107437134], "min" : [-1.0000042915344238, -0.9999801516532898, -1.0000044107437134], "name" : "NORMAL"}, {"bufferView" : 1, "byteOffset" : 24, "componentType" : 5126, "count" : 828, "type" : "VEC2", "max" : [0.7092721462249756, -0.004199291113764048], "min" : [0.005500138737261295, -0.9616314172744751], "name" : "TEXCOORD_0"}, {"bufferView" : 0, "byteOffset" : 1656, "componentType" : 5123, "count" : 96, "type" : "SCALAR", "max" : [95], "min" : [0]}, {"bufferView" : 2, "byteOffset" : 0, "componentType" : 5126, "count" : 96, "type" : "VEC3", "max" : [0.18426001071929932, 0.0045820120722055435, 0.15316008031368256], "min" : [-0.18426001071929932, -0.0052553764544427395, -0.15316008031368256], "name" : "POSITION"}, {"bufferView" : 2, "byteOffset" : 12, "componentType" : 5126, "count" : 96, "type" : "VEC3", "max" : [0.04590696096420288, -0.9980701804161072, 0.042013268917798996], "min" : [-0.04572567343711853, -0.999993622303009, -0.032764602452516556], "name" : "NORMAL"}, {"bufferView" : 2, "byteOffset" : 24, "componentType" : 5126, "count" : 96, "type" : "VEC2", "max" : [0.9915245175361633, -0.018619948998093605], "min" : [0.74272221326828, -0.22541260719299316], "name" : "TEXCOORD_0"}, {"bufferView" : 0, "byteOffset" : 1848, "componentType" : 5123, "count" : 5502, "type" : "SCALAR", "max" : [5501], "min" : [0]}, {"bufferView" : 3, "byteOffset" : 0, "componentType" : 5126, "count" : 5502, "type" : "VEC3", "max" : [0.22383548319339752, 0.2772679030895233, 0.4379239082336426], "min" : [-0.22383162379264832, -0.23032045364379883, -0.006091694813221693], "name" : "POSITION"}, {"bufferView" : 3, "byteOffset" : 12, "componentType" : 5126, "count" : 5502, "type" : "VEC3", "max" : [1.0000044107437134, 1.0000044107437134, 1.0000044107437134], "min" : [-1.0000044107437134, -1.0000014305114746, -1.0000044107437134], "name" : "NORMAL"}, {"bufferView" : 3, "byteOffset" : 24, "componentType" : 5126, "count" : 5502, "type" : "VEC2", "max" : [0.9747357368469238, -0.004199291113764048], "min" : [0.00860524270683527, -0.939031720161438], "name" : "TEXCOORD_0"}, {"bufferView" : 0, "byteOffset" : 12852, "componentType" : 5123, "count" : 120, "type" : "SCALAR", "max" : [119], "min" : [0]}, {"bufferView" : 4, "byteOffset" : 0, "componentType" : 5126, "count" : 120, "type" : "VEC3", "max" : [0.013867147266864777, 0.0026978685054928064, 0.01383264921605587], "min" : [-0.013867147266864777, -0.002697867341339588, -0.01383264921605587], "name" : "POSITION"}, {"bufferView" : 4, "byteOffset" : 12, "componentType" : 5126, "count" : 120, "type" : "VEC3", "max" : [0.9046998620033264, -0.1497398465871811, 0.882671058177948], "min" : [-0.8975533246994019, -0.999841570854187, -0.9147109985351562], "name" : "NORMAL"}, {"bufferView" : 4, "byteOffset" : 24, "componentType" : 5126, "count" : 120, "type" : "VEC2", "max" : [0.29900768399238586, -0.678389847278595], "min" : [0.2784901559352875, -0.6991673111915588], "name" : "TEXCOORD_0"}, {"bufferView" : 0, "byteOffset" : 13092, "componentType" : 5123, "count" : 120, "type" : "SCALAR", "max" : [119], "min" : [0]}, {"bufferView" : 5, "byteOffset" : 0, "componentType" : 5126, "count" : 120, "type" : "VEC3", "max" : [0.008494071662425995, 0.0015082628233358264, 0.008476482704281807], "min" : [-0.008494071662425995, -0.0015082620084285736, -0.008476482704281807], "name" : "POSITION"}, {"bufferView" : 5, "byteOffset" : 12, "componentType" : 5126, "count" : 120, "type" : "VEC3", "max" : [0.8970435261726379, -0.18122443556785583, 0.8798418641090393], "min" : [-0.8970421552658081, -0.9999551773071289, -0.9105521440505981], "name" : "NORMAL"}, {"bufferView" : 5, "byteOffset" : 24, "componentType" : 5126, "count" : 120, "type" : "VEC2", "max" : [0.3349583148956299, -0.6400400996208191], "min" : [0.3225444555282593, -0.652701735496521], "name" : "TEXCOORD_0"}, {"bufferView" : 0, "byteOffset" : 13332, "componentType" : 5123, "count" : 120, "type" : "SCALAR", "max" : [119], "min" : [0]}, {"bufferView" : 6, "byteOffset" : 0, "componentType" : 5126, "count" : 120, "type" : "VEC3", "max" : [0.008494094014167786, 0.001508290646597743, 0.008476527407765388], "min" : [-0.008494094014167786, -0.0015082898316904902, -0.008476527407765388], "name" : "POSITION"}, {"bufferView" : 6, "byteOffset" : 12, "componentType" : 5126, "count" : 120, "type" : "VEC3", "max" : [0.8970445990562439, -0.18121765553951263, 0.8798525929450989], "min" : [-0.8970435261726379, -0.9999551773071289, -0.9105582237243652], "name" : "NORMAL"}, {"bufferView" : 6, "byteOffset" : 24, "componentType" : 5126, "count" : 120, "type" : "VEC2", "max" : [0.29397886991500854, -0.6400399804115295], "min" : [0.2816758453845978, -0.652834951877594], "name" : "TEXCOORD_0"}, {"bufferView" : 0, "byteOffset" : 13572, "componentType" : 5123, "count" : 120, "type" : "SCALAR", "max" : [119], "min" : [0]}, {"bufferView" : 7, "byteOffset" : 0, "componentType" : 5126, "count" : 120, "type" : "VEC3", "max" : [0.008494071662425995, 0.0015082850586622953, 0.008476616814732552], "min" : [-0.008494075387716293, -0.0015082843601703644, -0.008476616814732552], "name" : "POSITION"}, {"bufferView" : 7, "byteOffset" : 12, "componentType" : 5126, "count" : 120, "type" : "VEC3", "max" : [0.8970403671264648, -0.18124105036258698, 0.879828691482544], "min" : [-0.897043764591217, -0.9999550580978394, -0.9105466604232788], "name" : "NORMAL"}, {"bufferView" : 7, "byteOffset" : 24, "componentType" : 5126, "count" : 120, "type" : "VEC2", "max" : [0.3197501599788666, -0.7034659385681152], "min" : [0.30714842677116394, -0.7161433696746826], "name" : "TEXCOORD_0"}, {"bufferView" : 0, "byteOffset" : 13812, "componentType" : 5123, "count" : 120, "type" : "SCALAR", "max" : [119], "min" : [0]}, {"bufferView" : 8, "byteOffset" : 0, "componentType" : 5126, "count" : 120, "type" : "VEC3", "max" : [0.008494089357554913, 0.001508290646597743, 0.008476616814732552], "min" : [-0.008494089357554913, -0.0015082898316904902, -0.008476616814732552], "name" : "POSITION"}, {"bufferView" : 8, "byteOffset" : 12, "componentType" : 5126, "count" : 120, "type" : "VEC3", "max" : [0.8970404863357544, -0.18123997747898102, 0.8798152208328247], "min" : [-0.8970409035682678, -0.9999551177024841, -0.910551905632019], "name" : "NORMAL"}, {"bufferView" : 8, "byteOffset" : 24, "componentType" : 5126, "count" : 120, "type" : "VEC2", "max" : [0.3403722643852234, -0.7036519646644592], "min" : [0.32789087295532227, -0.7161433696746826], "name" : "TEXCOORD_0"}], "asset" : {"generator" : "Aspose.3D 23.2", "version" : "2.0"}, "buffers" : [{"uri" : "data:application/octet-stream;base64,", "byteLength" : 238920}], "bufferViews" : [{"buffer" : 0, "byteOffset" : 0, "byteLength" : 14052, "target" : 34963}, {"buffer" : 0, "byteOffset" : 14056, "byteLength" : 26496, "byteStride" : 32, "target" : 34962}, {"buffer" : 0, "byteOffset" : 40556, "byteLength" : 3072, "byteStride" : 32, "target" : 34962}, {"buffer" : 0, "byteOffset" : 43632, "byteLength" : 176064, "byteStride" : 32, "target" : 34962}, {"buffer" : 0, "byteOffset" : 219700, "byteLength" : 3840, "byteStride" : 32, "target" : 34962}, {"buffer" : 0, "byteOffset" : 223544, "byteLength" : 3840, "byteStride" : 32, "target" : 34962}, {"buffer" : 0, "byteOffset" : 227388, "byteLength" : 3840, "byteStride" : 32, "target" : 34962}, {"buffer" : 0, "byteOffset" : 231232, "byteLength" : 3840, "byteStride" : 32, "target" : 34962}, {"buffer" : 0, "byteOffset" : 235076, "byteLength" : 3840, "byteStride" : 32, "target" : 34962}], "materials" : [{"name" : "basic", "pbrMetallicRoughness" : {"baseColorFactor" : [0.5, 0.5, 0.5, 1], "metallicFactor" : 0, "roughnessFactor" : 0}, "emissiveFactor" : [0, 0, 0], "alphaMode" : "OPAQUE", "doubleSided" : false}, {"name" : "basic", "pbrMetallicRoughness" : {"baseColorFactor" : [0.5, 0.5, 0.5, 1], "metallicFactor" : 0, "roughnessFactor" : 0}, "emissiveFactor" : [0, 0, 0], "alphaMode" : "OPAQUE", "doubleSided" : false}, {"name" : "basic", "pbrMetallicRoughness" : {"baseColorFactor" : [0.5, 0.5, 0.5, 1], "metallicFactor" : 0, "roughnessFactor" : 0}, "emissiveFactor" : [0, 0, 0], "alphaMode" : "OPAQUE", "doubleSided" : false}, {"name" : "basic", "pbrMetallicRoughness" : {"baseColorFactor" : [0.5, 0.5, 0.5, 1], "metallicFactor" : 0, "roughnessFactor" : 0}, "emissiveFactor" : [0, 0, 0], "alphaMode" : "OPAQUE", "doubleSided" : false}, {"name" : "basic", "pbrMetallicRoughness" : {"baseColorFactor" : [0.5, 0.5, 0.5, 1], "metallicFactor" : 0, "roughnessFactor" : 0}, "emissiveFactor" : [0, 0, 0], "alphaMode" : "OPAQUE", "doubleSided" : false}, {"name" : "basic", "pbrMetallicRoughness" : {"baseColorFactor" : [0.5, 0.5, 0.5, 1], "metallicFactor" : 0, "roughnessFactor" : 0}, "emissiveFactor" : [0, 0, 0], "alphaMode" : "OPAQUE", "doubleSided" : false}, {"name" : "basic", "pbrMetallicRoughness" : {"baseColorFactor" : [0.5, 0.5, 0.5, 1], "metallicFactor" : 0, "roughnessFactor" : 0}, "emissiveFactor" : [0, 0, 0], "alphaMode" : "OPAQUE", "doubleSided" : false}, {"name" : "basic", "pbrMetallicRoughness" : {"baseColorFactor" : [0.5, 0.5, 0.5, 1], "metallicFactor" : 0, "roughnessFactor" : 0}, "emissiveFactor" : [0, 0, 0], "alphaMode" : "OPAQUE", "doubleSided" : false}], "meshes" : [{"primitives" : [{"attributes" : {"POSITION" : 1, "NORMAL" : 2, "TEXCOORD_0" : 3}, "indices" : 0, "material" : 0, "mode" : 4}], "name" : "monitor_base"}, {"primitives" : [{"attributes" : {"POSITION" : 5, "NORMAL" : 6, "TEXCOORD_0" : 7}, "indices" : 4, "material" : 1, "mode" : 4}], "name" : "monitor_screen"}, {"primitives" : [{"attributes" : {"POSITION" : 9, "NORMAL" : 10, "TEXCOORD_0" : 11}, "indices" : 8, "material" : 2, "mode" : 4}], "name" : "monitor_shell"}, {"primitives" : [{"attributes" : {"POSITION" : 13, "NORMAL" : 14, "TEXCOORD_0" : 15}, "indices" : 12, "material" : 3, "mode" : 4}], "name" : "power_button"}, {"primitives" : [{"attributes" : {"POSITION" : 17, "NORMAL" : 18, "TEXCOORD_0" : 19}, "indices" : 16, "material" : 4, "mode" : 4}], "name" : "button_1"}, {"primitives" : [{"attributes" : {"POSITION" : 21, "NORMAL" : 22, "TEXCOORD_0" : 23}, "indices" : 20, "material" : 5, "mode" : 4}], "name" : "button_2"}, {"primitives" : [{"attributes" : {"POSITION" : 25, "NORMAL" : 26, "TEXCOORD_0" : 27}, "indices" : 24, "material" : 6, "mode" : 4}], "name" : "button_3"}, {"primitives" : [{"attributes" : {"POSITION" : 29, "NORMAL" : 30, "TEXCOORD_0" : 31}, "indices" : 28, "material" : 7, "mode" : 4}], "name" : "button_4"}], "nodes" : [{"matrix" : [1, 0, 0, 0, 0, 1, 0, 0, 0, 0, 1, 0, -0.0005666735814884305, -0.21784402430057526, 0.3114129900932312, 1], "mesh" : 1, "name" : "monitor_screen"}, {"matrix" : [1, 0, 0, 0, 0, 1, 0, 0, 0, 0, 1, 0, -1.8817833051798516E-06, 0.0002584409958217293, 0.06428657472133636, 1], "mesh" : 2, "name" : "monitor_shell"}, {"matrix" : [1, 0, 0, 0, 0, 1, 0, 0, 0, 0, 1, 0, 0.093736432492733, -0.22269867360591888, 0.1154790073633194, 1], "mesh" : 3, "name" : "power_button"}, {"matrix" : [1, 0, 0, 0, 0, 1, 0, 0, 0, 0, 1, 0, -0.06663479655981064, -0.2243783175945282, 0.11547571420669556, 1], "mesh" : 4, "name" : "button_1"}, {"matrix" : [1, 0, 0, 0, 0, 1, 0, 0, 0, 0, 1, 0, -0.037059277296066284, -0.2253653109073639, 0.11548793315887451, 1], "mesh" : 5, "name" : "button_2"}, {"matrix" : [1, 0, 0, 0, 0, 1, 0, 0, 0, 0, 1, 0, -0.005386991426348686, -0.2262081354856491, 0.11543379724025726, 1], "mesh" : 6, "name" : "button_3"}, {"matrix" : [1, 0, 0, 0, 0, 1, 0, 0, 0, 0, 1, 0, 0.02421504445374012, -0.22571368515491486, 0.11547324806451797, 1], "mesh" : 7, "name" : "button_4"}, {"children" : [0, 1, 2, 3, 4, 5, 6], "matrix" : [100, 0, 0, 0, 0, -1.6292067955264296E-05, -99.99999999999866, 0, 0, 99.99999999999866, -1.6292067955264296E-05, 0, -2.0954757928848267E-07, 0.06560925394296646, -9.313225746154785E-07, 1], "mesh" : 0, "name" : "monitor_base"}], "scene" : 0, "scenes" : [{"nodes" : [7]}]}