{"accessors" : [{"bufferView" : 0, "byteOffset" : 0, "componentType" : 5123, "count" : 3006, "type" : "SCALAR", "max" : [3005], "min" : [0]}, {"bufferView" : 1, "byteOffset" : 0, "componentType" : 5126, "count" : 3006, "type" : "VEC3", "max" : [0.25699999928474426, 0.08749999850988388, 0.37495774030685425], "min" : [-0.25699999928474426, -0.08749999850988388, 0], "name" : "POSITION"}, {"bufferView" : 1, "byteOffset" : 12, "componentType" : 5126, "count" : 3006, "type" : "VEC3", "max" : [1.0000044107437134, 1.0000044107437134, 1.0000044107437134], "min" : [-1.0000044107437134, -1.0000044107437134, -1.0000044107437134], "name" : "NORMAL"}, {"bufferView" : 1, "byteOffset" : 24, "componentType" : 5126, "count" : 3006, "type" : "VEC2", "max" : [0.8841120004653931, -0.002367775421589613], "min" : [0.006244651973247528, -0.9935322999954224], "name" : "TEXCOORD_0"}], "asset" : {"generator" : "Aspose.3D 23.2", "version" : "2.0"}, "buffers" : [{"uri" : "data:application/octet-stream;base64,", "byteLength" : 102212}], "bufferViews" : [{"buffer" : 0, "byteOffset" : 0, "byteLength" : 6012, "target" : 34963}, {"buffer" : 0, "byteOffset" : 6016, "byteLength" : 96192, "byteStride" : 32, "target" : 34962}], "materials" : [{"name" : "basic", "pbrMetallicRoughness" : {"baseColorFactor" : [0.800000011920929, 0.800000011920929, 0.800000011920929, 1], "metallicFactor" : 0, "roughnessFactor" : 0}, "emissiveFactor" : [0, 0, 0], "alphaMode" : "OPAQUE", "doubleSided" : false}], "meshes" : [{"primitives" : [{"attributes" : {"POSITION" : 1, "NORMAL" : 2, "TEXCOORD_0" : 3}, "indices" : 0, "material" : 0, "mode" : 4}], "name" : "Cube.009"}], "nodes" : [{"matrix" : [100, 0, 0, 0, 0, -1.6292067955264296E-05, -99.99999999999866, 0, 0, 99.99999999999866, -1.6292067955264296E-05, 0, 0, 0, 0, 1], "mesh" : 0, "name" : "computer_screen"}], "scene" : 0, "scenes" : [{"nodes" : [0]}]}